{
	"asset":{
		"generator":"Khronos glTF Blender I/O v5.1.19",
		"version":"2.0"
	},
	"scene":0,
	"scenes":[
		{
			"name":"Scene",
			"nodes":[
				0
			]
		}
	],
	"nodes":[
		{
			"mesh":0,
			"name":"Sentinel_Eternum"
		}
	],
	"materials":[
		{
			"doubleSided":true,
			"name":"Material_0.002",
			"normalTexture":{
				"index":0
			},
			"pbrMetallicRoughness":{
				"baseColorTexture":{
					"index":1
				},
				"metallicRoughnessTexture":{
					"index":2
				}
			}
		},
		{
			"alphaMode":"BLEND",
			"doubleSided":true,
			"name":"Black_Widow_&_Dragons",
			"pbrMetallicRoughness":{
				"baseColorTexture":{
					"index":3
				},
				"metallicFactor":0,
				"roughnessFactor":0.5
			}
		}
	],
	"meshes":[
		{
			"name":"Mesh_0.002",
			"primitives":[
				{
					"attributes":{
						"POSITION":0,
						"NORMAL":1,
						"TEXCOORD_0":2
					},
					"indices":3,
					"material":0
				},
				{
					"attributes":{
						"POSITION":4,
						"NORMAL":5,
						"TEXCOORD_0":6
					},
					"indices":7,
					"material":1
				}
			]
		}
	],
	"textures":[
		{
			"sampler":0,
			"source":0
		},
		{
			"sampler":0,
			"source":1
		},
		{
			"sampler":0,
			"source":2
		},
		{
			"sampler":1,
			"source":3
		}
	],
	"images":[
		{
			"mimeType":"image/jpeg",
			"name":"Image_2",
			"uri":"Sentinel_Eternum_Textures/Image_2.jpg"
		},
		{
			"mimeType":"image/jpeg",
			"name":"Image_0",
			"uri":"Sentinel_Eternum_Textures/Image_0.jpg"
		},
		{
			"mimeType":"image/jpeg",
			"name":"Image_1",
			"uri":"Sentinel_Eternum_Textures/Image_1.jpg"
		},
		{
			"mimeType":"image/png",
			"name":"Meshy_AI_b973029d95759a95454c7971526485d84df2972e94d7c6b77afb3a4bc1f46f47",
			"uri":"Sentinel_Eternum_Textures/Meshy_AI_b973029d95759a95454c7971526485d84df2972e94d7c6b77afb3a4bc1f46f47.png"
		}
	],
	"accessors":[
		{
			"bufferView":0,
			"componentType":5126,
			"count":245983,
			"max":[
				1043.95703125,
				314.79632568359375,
				2068.60498046875
			],
			"min":[
				-1043.861083984375,
				-267.1116943359375,
				-1496.615478515625
			],
			"type":"VEC3"
		},
		{
			"bufferView":1,
			"componentType":5126,
			"count":245983,
			"type":"VEC3"
		},
		{
			"bufferView":2,
			"componentType":5126,
			"count":245983,
			"type":"VEC2"
		},
		{
			"bufferView":3,
			"componentType":5125,
			"count":1234617,
			"type":"SCALAR"
		},
		{
			"bufferView":4,
			"componentType":5126,
			"count":4,
			"max":[
				100.00009155273438,
				-242.44163513183594,
				529.2539672851562
			],
			"min":[
				-99.99995422363281,
				-247.6770477294922,
				329.3224182128906
			],
			"type":"VEC3"
		},
		{
			"bufferView":5,
			"componentType":5126,
			"count":4,
			"type":"VEC3"
		},
		{
			"bufferView":6,
			"componentType":5126,
			"count":4,
			"type":"VEC2"
		},
		{
			"bufferView":7,
			"componentType":5123,
			"count":6,
			"type":"SCALAR"
		}
	],
	"bufferViews":[
		{
			"buffer":0,
			"byteLength":2951796,
			"byteOffset":0,
			"target":34962
		},
		{
			"buffer":0,
			"byteLength":2951796,
			"byteOffset":2951796,
			"target":34962
		},
		{
			"buffer":0,
			"byteLength":1967864,
			"byteOffset":5903592,
			"target":34962
		},
		{
			"buffer":0,
			"byteLength":4938468,
			"byteOffset":7871456,
			"target":34963
		},
		{
			"buffer":0,
			"byteLength":48,
			"byteOffset":12809924,
			"target":34962
		},
		{
			"buffer":0,
			"byteLength":48,
			"byteOffset":12809972,
			"target":34962
		},
		{
			"buffer":0,
			"byteLength":32,
			"byteOffset":12810020,
			"target":34962
		},
		{
			"buffer":0,
			"byteLength":12,
			"byteOffset":12810052,
			"target":34963
		}
	],
	"samplers":[
		{
			"magFilter":9729,
			"minFilter":9987
		},
		{
			"magFilter":9729,
			"minFilter":9987,
			"wrapS":33071,
			"wrapT":33071
		}
	],
	"buffers":[
		{
			"byteLength":12810064,
			"uri":"Sentinel_Eternum.bin"
		}
	]
}
